# xmcd CD database file generated by OrangeCD 5.2
#
# Track frame offsets:
#	150
#	12495
#	23722
#	38250
#	54067
#	65152
#	81347
#	95037
#	109315
#	122320
#
# Disc length: 1877 seconds
#
# Revision: 2
# Processed by: cddbd v1.5.1PL0 Copyright (c) Steve Scherf et al.
# Submitted via: OrangeCD 5.2
#
DISCID=7607530a
DTITLE=George Jones - Classic George
DYEAR=1999
DGENRE=Country
TTITLE0=Wrong's What I Do Best
TTITLE1=Honky Tonk Myself To Death
TTITLE2=She Loved A Lot In Her Time
TTITLE3=I Don't Need Your Rockin' Chair
TTITLE4=High-Tech Redneck
TTITLE5=You Couldn't Get The Picture
TTITLE6=Billy Be Bad
TTITLE7=A Good Year For The Roses
TTITLE8=I've Still Got Some Hurtin' Left To Do
TTITLE9=George Jones and Tammy Wynette - One
EXTD=
EXTT0=
EXTT1=
EXTT2=
EXTT3=
EXTT4=
EXTT5=
EXTT6=
EXTT7=
EXTT8=
EXTT9=
PLAYORDER=
